<svg height="512" viewBox="0 0 64 64" width="512" xmlns="http://www.w3.org/2000/svg"><g id="Picture_optimize" data-name="Picture optimize"><path d="m9 3h52v44h-52z" fill="#006df0"/><path d="m59 3h2v44h-2z" fill="#005ece"/><path d="m13 7h44v28h-44z" fill="#9bc9ff"/><path d="m46 21-7.12 9.06 4.12 4.94h14z" fill="#4e901e"/><circle cx="39" cy="14" fill="#ed1c24" r="3"/><path d="m33.65 50a3.228 3.228 0 0 1 -.24.58l2.37 2.37-2.83 2.83-2.37-2.37a3.228 3.228 0 0 1 -.58.24v3.35h-4v-3.35a3.228 3.228 0 0 1 -.58-.24l-2.37 2.37-2.83-2.83 2.37-2.37a3.228 3.228 0 0 1 -.24-.58h-3.35v-4h3.35a3.228 3.228 0 0 1 .24-.58l-2.37-2.37 2.83-2.83 2.37 2.37a3.228 3.228 0 0 1 .58-.24v-3.35h4v3.35a3.228 3.228 0 0 1 .58.24l2.37-2.37 2.83 2.83-2.37 2.37a3.228 3.228 0 0 1 .24.58h3.35v4z" fill="#ffcd00"/><circle cx="28" cy="48" fill="#f1f2f2" r="3"/><path d="m43 35h-30l15-18z" fill="#5eac24"/><path d="m14 24.58v8.42l-3 2-3-2v-8.42a8 8 0 0 0 -2.316 13.394 3.946 3.946 0 0 1 1.316 2.957v16.069a4 4 0 0 0 8 0v-16.069a3.946 3.946 0 0 1 1.316-2.957 8 8 0 0 0 -2.316-13.394z" fill="#ed1c24"/><path d="m14 24.58v1.177a7.993 7.993 0 0 1 .316 12.217 3.946 3.946 0 0 0 -1.316 2.957v16.069a3.992 3.992 0 0 1 -3 3.859 3.953 3.953 0 0 0 5-3.859v-16.069a3.946 3.946 0 0 1 1.316-2.957 8 8 0 0 0 -2.316-13.394z" fill="#d80027"/><path d="m11 62a5.006 5.006 0 0 1 -5-5v-16.069a2.948 2.948 0 0 0 -.98-2.209 9 9 0 0 1 2.6-15.068 1 1 0 0 1 1.38.926v7.885l2 1.335 2-1.333v-7.887a1 1 0 0 1 1.376-.926 9 9 0 0 1 2.6 15.068 2.95 2.95 0 0 0 -.976 2.209v16.069a5.006 5.006 0 0 1 -5 5zm-4-35.749a7 7 0 0 0 -.653 10.975 4.95 4.95 0 0 1 1.653 3.705v16.069a3 3 0 0 0 6 0v-16.069a4.952 4.952 0 0 1 1.652-3.7 7 7 0 0 0 -.652-10.98v6.749a1 1 0 0 1 -.445.832l-3 2a1 1 0 0 1 -1.11 0l-3-2a1 1 0 0 1 -.445-.832z"/><path d="m11 58a1 1 0 0 1 -1-1v-16a1 1 0 0 1 2 0v16a1 1 0 0 1 -1 1z"/><path d="m61 2h-52a1 1 0 0 0 -1 1v18a1 1 0 0 0 2 0v-17h50v42h-19a1 1 0 0 0 0 2h20a1 1 0 0 0 1-1v-44a1 1 0 0 0 -1-1z"/><path d="m56 32.109-9.214-11.727a1 1 0 0 0 -1.572 0l-6.355 8.087-10.09-12.109a1 1 0 0 0 -1.537 0l-7.5 9a1 1 0 1 0 1.535 1.28l6.733-8.078 12.865 15.438h-18.865a1 1 0 0 0 0 2h35a1 1 0 0 0 1-1v-28a1 1 0 0 0 -1-1h-44a1 1 0 0 0 -1 1v14a1 1 0 0 0 2 0v-13h42zm-15.832-2.07 5.832-7.42 8.943 11.381h-11.475z"/><path d="m43 14a4 4 0 1 0 -4 4 4 4 0 0 0 4-4zm-6 0a2 2 0 1 1 2 2 2 2 0 0 1 -2-2z"/><path d="m37 45h-1.756l1.243-1.243a1 1 0 0 0 0-1.414l-2.83-2.83a1 1 0 0 0 -1.414 0l-1.243 1.243v-1.756a1 1 0 0 0 -1-1h-4a1 1 0 0 0 -1 1v1.756l-1.243-1.243a1 1 0 0 0 -1.414 0l-2.83 2.83a1 1 0 0 0 0 1.414l1.243 1.243h-1.756a1 1 0 0 0 -1 1v4a1 1 0 0 0 1 1h1.756l-1.243 1.243a1 1 0 0 0 0 1.414l2.83 2.83a1 1 0 0 0 1.414 0l1.243-1.243v1.756a1 1 0 0 0 1 1h4a1 1 0 0 0 1-1v-1.756l1.243 1.243a1 1 0 0 0 1.414 0l2.83-2.83a1 1 0 0 0 0-1.414l-1.243-1.243h1.756a1 1 0 0 0 1-1v-4a1 1 0 0 0 -1-1zm-1 4h-2.35a1 1 0 0 0 -.957.71 2.234 2.234 0 0 1 -.169.406 1 1 0 0 0 .179 1.171l1.663 1.663-1.416 1.416-1.663-1.666a1 1 0 0 0 -1.171-.179 2.306 2.306 0 0 1 -.4.168 1 1 0 0 0 -.716.961v2.35h-2v-2.35a1 1 0 0 0 -.713-.958 2.306 2.306 0 0 1 -.4-.168 1 1 0 0 0 -1.171.179l-1.666 1.663-1.416-1.416 1.666-1.663a1 1 0 0 0 .179-1.171 2.234 2.234 0 0 1 -.169-.406 1 1 0 0 0 -.96-.71h-2.35v-2h2.35a1 1 0 0 0 .957-.71 2.234 2.234 0 0 1 .169-.406 1 1 0 0 0 -.179-1.171l-1.663-1.663 1.416-1.416 1.663 1.666a1 1 0 0 0 1.171.179 2.306 2.306 0 0 1 .4-.168 1 1 0 0 0 .716-.961v-2.35h2v2.35a1 1 0 0 0 .713.958 2.306 2.306 0 0 1 .4.168 1 1 0 0 0 1.171-.179l1.663-1.663 1.416 1.416-1.663 1.663a1 1 0 0 0 -.179 1.171 2.234 2.234 0 0 1 .169.406 1 1 0 0 0 .957.71h2.353z"/><path d="m28 44a4 4 0 1 0 4 4 4 4 0 0 0 -4-4zm0 6a2 2 0 1 1 2-2 2 2 0 0 1 -2 2z"/></g></svg>
